<?xml version="1.0" encoding="UTF-8" standalone="no"?>
<!-- Created with Inkscape (http://www.inkscape.org/) -->

<svg
   width="210mm"
   height="297mm"
   viewBox="0 0 210 297"
   version="1.1"
   id="svg1"
   xml:space="preserve"
   inkscape:version="1.2.2 (b0a8486, 2022-12-01)"
   sodipodi:docname="cachecache.svg"
   inkscape:export-filename="cachecache.png"
   inkscape:export-xdpi="300"
   inkscape:export-ydpi="300"
   xmlns:inkscape="http://www.inkscape.org/namespaces/inkscape"
   xmlns:sodipodi="http://sodipodi.sourceforge.net/DTD/sodipodi-0.dtd"
   xmlns:xlink="http://www.w3.org/1999/xlink"
   xmlns="http://www.w3.org/2000/svg"
   xmlns:svg="http://www.w3.org/2000/svg"><sodipodi:namedview
     id="namedview1"
     pagecolor="#ffffff"
     bordercolor="#666666"
     borderopacity="1.0"
     inkscape:showpageshadow="2"
     inkscape:pageopacity="0.0"
     inkscape:pagecheckerboard="0"
     inkscape:deskcolor="#d1d1d1"
     inkscape:document-units="mm"
     inkscape:zoom="0.65504236"
     inkscape:cx="572.48206"
     inkscape:cy="518.28709"
     inkscape:window-width="1440"
     inkscape:window-height="847"
     inkscape:window-x="0"
     inkscape:window-y="25"
     inkscape:window-maximized="0"
     inkscape:current-layer="layer1"
     showgrid="false"><inkscape:grid
       id="grid13"
       units="px"
       originx="0"
       originy="0"
       spacingx="0.26458333"
       spacingy="0.26458334"
       empcolor="#3f3fff"
       empopacity="0.25098039"
       color="#3f3fff"
       opacity="0.1254902"
       empspacing="5"
       dotted="false"
       gridanglex="30"
       gridanglez="30"
       visible="true" /></sodipodi:namedview><defs
     id="defs1"><color-profile
       name="sRGB-IEC61966-2.1"
       xlink:href="file:///System/Library/ColorSync/Profiles/sRGB%20Profile.icc"
       id="color-profile28797" /><linearGradient
       id="paint0_linear_87_8204"
       x1="12.4809"
       y1="2"
       x2="12.4809"
       y2="22.7407"
       gradientUnits="userSpaceOnUse"><stop
         stop-color="#327EBD"
         id="stop2" /><stop
         offset="1"
         stop-color="#1565A7"
         id="stop3" /></linearGradient><linearGradient
       id="paint1_linear_87_8204"
       x1="19.519"
       y1="9.25928"
       x2="19.519"
       y2="30"
       gradientUnits="userSpaceOnUse"><stop
         stop-color="#FFDA4B"
         id="stop4" /><stop
         offset="1"
         stop-color="#F9C600"
         id="stop5" /></linearGradient><linearGradient
       id="paint0_linear_87_8204-7"
       x1="12.4809"
       y1="2"
       x2="12.4809"
       y2="22.7407"
       gradientUnits="userSpaceOnUse"><stop
         stop-color="#327EBD"
         id="stop2-4" /><stop
         offset="1"
         stop-color="#1565A7"
         id="stop3-0" /></linearGradient><linearGradient
       id="paint1_linear_87_8204-6"
       x1="19.518999"
       y1="9.2592802"
       x2="19.518999"
       y2="30"
       gradientUnits="userSpaceOnUse"><stop
         stop-color="#FFDA4B"
         id="stop4-4" /><stop
         offset="1"
         stop-color="#F9C600"
         id="stop5-7" /></linearGradient><clipPath
       clipPathUnits="userSpaceOnUse"
       id="clipPath8"><path
         style="fill:none;stroke:#000000;stroke-width:0.6;stroke-linecap:butt;stroke-linejoin:miter;stroke-dasharray:none;stroke-opacity:1"
         d="m 24.292749,22.713348 c 0,0 -1.083995,-0.515139 -1.345081,-0.850082 -0.20584,-0.264063 -0.219183,-0.74459 -0.008,-1.004402 0.133628,-0.164404 0.623186,-0.124913 0.623186,-0.124913 0,0 -0.937727,-0.422612 -0.992699,-0.856093 -0.0019,-0.592553 0.599133,-0.622196 1.022806,-0.492053 0,0 -0.712297,-0.543612 -0.756497,-0.944572 -0.03662,-0.71955 0.543882,-1.070929 1.179188,-1.092803 0,0 -3.701861,0.124146 -4.319388,-1.240662 -0.108303,-0.239363 1.375968,-1.406206 1.375968,-1.406206 0,0 -1.906149,-0.485185 -1.790451,-0.771292 0.31473,-0.778302 1.424247,-0.974951 1.97442,-1.124954 -0.470731,0.127172 -1.324102,-0.439817 -1.231226,-0.949754 0.107709,-0.591366 1.724477,-0.527266 1.724477,-0.527266 0,0 -1.343496,-0.723207 -1.130009,-0.955698 0.780922,-0.8504535 2.022184,-0.8023911 2.022184,-0.8023911 0,0 -1.971388,-0.5082649 -1.773314,-1.192497 0.172365,-0.5954238 1.858859,-0.052888 1.858859,-0.052888 0,0 -1.119932,-0.614049 -1.059015,-1.1255903 0.07872,-0.6610611 1.671887,-1.0925142 1.671887,-1.0925142 C 21.416233,5.2485507 21.454142,4.1691593 21.734166,2.53438 L 20.70979,3.0717651 c -0.427555,0.1379354 -0.624075,0.1096378 -0.733126,-0.010308 v 0 C 19.757743,2.8206849 19.780196,2.9520545 19.701621,1.8786726 19.550247,2.2532599 19.462847,2.9469612 18.855562,2.7988384 18.604983,2.7377207 18.723334,2.1118203 18.808996,1.7688861 c 0,0 -0.113707,0.3730604 -0.26706,0.3746446 -0.133492,0.00137 -0.182089,-0.045291 -0.239152,-0.3212444 -0.017,0.1622908 0.154085,0.9153466 -0.159864,0.9291005 -0.333227,0.014584 -0.234207,-0.4310578 -0.255261,-0.9675355 -0.202291,0.5177292 -0.313801,1.0206426 -0.696969,1.0048331 -0.677058,-0.027936 -0.330461,-0.484925 -0.373345,-1.1674656 -0.07245,0.1476456 -0.319419,0.835006 -0.691687,0.8952736 -0.321353,0.052027 -0.633387,-0.058699 -0.810434,-0.5449619 -0.04884,-0.1516835 -0.02407,-0.477454 -0.02407,-0.477454 0,0 -0.02925,1.0846928 -0.439557,1.2058867 -0.683609,0.2019175 -1.901539,0.091632 -1.706428,-1.2887712 0.03704,0.8610166 -0.882992,1.5005685 -1.646211,1.6792281 -0.685299,0.1604209 -1.275121,-0.5900802 -1.9937947,-0.6950468 0,0 0.8085677,0.325526 1.0850297,0.6420383 1.042402,1.6323531 -2.4634686,1.2680381 -3.402874,1.1552661 0,0 0.7194574,0.3305846 1.020974,0.5802091 1.7443265,1.2529336 -0.6045855,0.822842 -1.6276159,1.0407576 0,0 1.3566607,-0.060479 1.7233853,0.4015053 0.4009765,1.0102659 -0.9639139,1.1425814 -1.8059796,1.3183809 0.6903032,0.091976 2.5348591,-0.448954 3.4586784,0.2456112 0.3646568,0.2741627 0.4723118,1.2845932 0.4723118,1.2845932 0,0 2.602453,-0.7664259 3.026993,0.15028 0.182675,0.3944513 -0.793138,1.035178 -0.793138,1.035178 0,0 1.893636,-0.534775 2.232645,-0.3577359 0.753889,0.7606989 -0.734979,0.8804059 -1.318628,1.0770669 0.927101,-0.0051 2.031056,0.142593 1.869204,0.897412 -0.105498,0.645641 -0.551824,0.752485 -1.796816,0.194812 1.747136,0.948602 2.103347,1.009517 1.973735,1.360873 -0.04678,0.126825 -2.038621,-0.525394 -2.038621,-0.525394 0,0 1.911095,1.095734 1.501815,1.744876 -0.359008,0.569407 -1.948939,-0.52882 -1.948939,-0.52882 0,0 1.142657,1.140637 0.841816,1.695191 -0.417965,0.770457 -2.611979,0.303722 -2.611979,0.303722 0.916549,0.486184 0.266379,1.808788 -0.239379,2.458538 -0.5482,0.704279 -0.976087,0.970725 -2.5196764,0.905535 0,0 1.8086984,0.302908 1.7266914,0.955605 -0.07525,0.598916 -1.0714714,0.175512 -1.7520905,0.457656 0,0 1.4323265,-0.09291 1.7641085,0.411599 0.198958,0.302536 -0.02858,0.746219 -0.192484,1.069094 -0.2016902,0.397322 -0.9221921,0.967705 -0.9221921,0.967705 0,0 1.4565711,0.197842 1.4599071,0.744021 0.0051,0.827135 -2.1969684,1.153668 -2.1969684,1.153668 l 0.5443665,7.39889 6.9075359,1.040783 9.54682,-3.543004 3.166,-3.879824 -0.07813,-2.723522 z"
         id="path8"
         sodipodi:nodetypes="csscscscscscacscacacccsscscacacscascacacscscscacacscscscacacacacsscaccccccc"
         inkscape:label="python bush outline" /></clipPath></defs><g
     inkscape:label="Layer 1"
     inkscape:groupmode="layer"
     id="layer1"><g
       id="g10412"
       inkscape:export-filename="../../../../../../Dropbox/Science/cachecache/images/cachecache1.svg"
       inkscape:export-xdpi="300"
       inkscape:export-ydpi="300"><rect
         style="opacity:1;fill:#ffffff;fill-opacity:1;stroke:none;stroke-width:0.899995;stroke-opacity:1"
         id="rect10365"
         width="130.98361"
         height="155.43121"
         x="41.411572"
         y="55.227776"
         inkscape:label="background color"
         inkscape:export-filename="cachecache_v2.png"
         inkscape:export-xdpi="500"
         inkscape:export-ydpi="500" /><rect
         style="opacity:1;fill:#4cb131;fill-opacity:1;stroke:#000000;stroke-width:0.899995;stroke-opacity:1"
         id="rect1"
         width="130.98361"
         height="155.43121"
         x="41.411572"
         y="55.227776"
         inkscape:label="background color"
         inkscape:export-filename="cachecache_v2.png"
         inkscape:export-xdpi="500"
         inkscape:export-ydpi="500" /><path
         style="fill:#000000"
         d="m 122.65902,71.248712 c 0.29408,0.173721 0.30393,0.172123 0.4783,-0.07745 0.0979,-0.140157 0.41162,-0.510424 0.69712,-0.822814 0.84613,-0.925827 1.20525,-1.571432 1.35585,-2.437362 0.33039,-1.899946 1.34753,-3.035928 2.71835,-3.035928 0.68572,0 1.15286,0.201321 1.48866,0.641569 0.45231,0.593027 0.60691,1.171905 0.53261,1.994476 l -0.0655,0.725557 0.36961,0.133655 c 0.79638,0.287972 1.33203,1.206978 1.27628,2.189666 -0.0274,0.483398 -0.0611,0.562889 -0.23847,0.562889 -0.17386,0 -0.21651,-0.08986 -0.26957,-0.567983 -0.0851,-0.76713 -0.31268,-1.265067 -0.70614,-1.545236 -0.26602,-0.189421 -0.47754,-0.236127 -1.12183,-0.247709 -0.7204,-0.01295 -0.79401,-0.03342 -0.79401,-0.220813 0,-0.159244 0.10606,-0.232101 0.46316,-0.318169 0.40836,-0.09842 0.46587,-0.147299 0.48608,-0.413079 0.0126,-0.165796 0.0475,-0.399821 0.0775,-0.520056 0.03,-0.120234 -0.0149,-0.452777 -0.0999,-0.738985 -0.28023,-0.943658 -1.08964,-1.386893 -1.94133,-1.063082 -0.79243,0.30128 -1.45646,1.350536 -1.6314,2.577804 -0.0518,0.36322 -0.21169,0.876372 -0.35536,1.140338 -0.29729,0.546232 -2.27634,2.898031 -2.4387,2.898031 -0.0587,0 -0.24485,-0.116178 -0.4136,-0.258174 z m 18.00873,132.934648 c -0.12206,-0.1975 0.0648,-0.70273 0.47823,-1.29288 0.31895,-0.45532 0.39835,-0.65077 0.35134,-0.86482 -0.0803,-0.36551 -0.51338,-0.82155 -0.95577,-1.00639 -0.41026,-0.17142 -1.40145,-0.20062 -1.78855,-0.0527 -0.69449,0.2654 -1.22887,1.05632 -1.08933,1.61228 0.0388,0.15463 0.001,0.28993 -0.10462,0.37788 -0.41852,0.34734 -0.6119,-0.7429 -0.25439,-1.43418 0.23003,-0.44478 0.45227,-0.64761 1.06376,-0.97085 0.58564,-0.30957 1.79197,-0.32939 2.40416,-0.0395 0.44888,0.21256 1.08337,0.7568 1.08591,0.93144 8.7e-4,0.0599 0.0425,0.17342 0.0925,0.25236 0.0751,0.11856 0.17811,0.10059 0.59222,-0.10327 0.39565,-0.19477 0.6646,-0.24629 1.27585,-0.2444 0.83152,0.003 1.2682,0.16651 1.93609,0.72686 0.42641,0.35775 1.05873,1.30497 1.05873,1.58599 0,0.34652 -0.39196,0.27221 -0.5986,-0.11349 -0.28869,-0.53882 -0.93799,-1.19624 -1.40454,-1.4221 -0.28738,-0.13911 -0.64347,-0.21167 -1.03879,-0.21167 -1.04702,0 -1.82722,0.55221 -2.43136,1.72088 -0.32715,0.63284 -0.52235,0.79198 -0.67281,0.54853 z m -69.901082,-9.17085 c -0.033,-0.0534 -0.102056,-0.39407 -0.153462,-0.75706 -0.167907,-1.18563 -0.571763,-1.86222 -1.218088,-2.04068 -0.584448,-0.16137 -1.046391,0.0413 -1.768325,0.77578 -0.663311,0.67485 -0.880673,0.78535 -0.989094,0.50281 -0.09945,-0.25917 0.937178,-1.34548 1.583819,-1.65973 0.750723,-0.36482 1.497076,-0.27785 2.092382,0.24383 0.160998,0.14109 0.21316,0.12467 0.553638,-0.17427 0.473209,-0.41549 0.755739,-0.52274 1.376957,-0.52274 0.655062,0 1.103495,0.16168 1.634604,0.58935 0.676611,0.54484 0.972439,1.13161 0.991528,1.96669 0.01448,0.63341 -0.0029,0.69695 -0.190609,0.69695 -0.170995,0 -0.217544,-0.0902 -0.27049,-0.52392 -0.157463,-1.29004 -1.109823,-2.2098 -2.290561,-2.21215 -0.368882,-7.3e-4 -0.781783,0.21429 -1.08502,0.56504 -0.231374,0.26763 -0.233602,0.28928 -0.07806,0.75855 0.08806,0.26568 0.172005,0.78347 0.186538,1.15064 0.02184,0.55186 -0.0032,0.67369 -0.144668,0.70279 -0.0941,0.0194 -0.198092,-0.008 -0.23109,-0.0619 z m 85.883992,-5.43192 c -1.50778,-0.287 -2.71189,-1.07006 -3.18727,-2.07276 -0.38623,-0.81464 -0.2887,-1.48153 0.33653,-2.30126 0.60501,-0.79321 2.11301,-1.4419 3.53435,-1.52036 0.41879,-0.0231 0.77866,-0.0593 0.79972,-0.0803 0.0211,-0.0211 -0.16439,-0.24981 -0.4121,-0.50834 -0.24772,-0.25852 -0.57691,-0.72864 -0.73154,-1.04469 -0.61758,-1.26229 -0.38947,-2.44416 0.56806,-2.94315 0.67893,-0.35381 1.68134,-0.28099 2.55706,0.18576 0.41135,0.21925 0.63978,0.40567 0.63978,0.52211 0,0.30739 -0.2718,0.30709 -0.84474,-9.1e-4 -0.99329,-0.53398 -1.93237,-0.51232 -2.46713,0.0569 -0.19754,0.21027 -0.2426,0.36654 -0.23607,0.8186 0.0166,1.14958 0.93136,2.34327 2.32477,3.03369 0.58594,0.29033 0.76641,0.43188 0.79342,0.62229 0.0383,0.27004 0.0679,0.26963 -1.11929,0.0152 -0.72707,-0.15579 -2.21097,-0.12619 -2.94737,0.0588 -1.34564,0.33801 -2.42265,1.27867 -2.42265,2.11592 0,1.55942 1.9246,2.66727 4.42103,2.54484 1.32327,-0.0649 2.22393,-0.3582 2.97271,-0.96808 0.58284,-0.47474 0.86783,-0.52481 0.86783,-0.15249 0,0.22928 -0.66586,0.80817 -1.29087,1.12228 -1.08969,0.54764 -2.80762,0.75262 -4.15623,0.49592 z M 52.671196,176.66947 c -0.08358,-0.21781 0.02458,-0.34237 0.50993,-0.58725 0.638874,-0.32234 1.48042,-1.07541 1.787718,-1.59978 0.343603,-0.58631 0.310946,-1.34118 -0.07594,-1.75536 -0.575506,-0.61611 -1.638127,-0.99923 -3.073866,-1.10827 -1.084746,-0.0824 -1.139402,-0.46103 -0.113638,-0.78726 0.717446,-0.22817 1.288602,-0.54098 1.979993,-1.08439 0.776915,-0.61064 1.140157,-1.1755 1.197042,-1.86145 0.04231,-0.51019 0.02012,-0.58431 -0.258261,-0.86269 -0.99683,-0.99683 -3.800028,-0.51711 -5.44636,0.93205 -0.479949,0.42247 -0.747911,0.49654 -0.848451,0.23454 -0.148767,-0.38768 1.438165,-1.49977 2.785228,-1.95183 1.757828,-0.58991 3.53016,-0.3165 4.157797,0.6414 0.08727,0.13319 0.185316,0.46711 0.217879,0.74206 0.117515,0.99223 -0.798646,2.27634 -2.223298,3.11622 l -0.631664,0.37239 0.695394,0.1832 c 2.085365,0.54938 2.949891,1.91292 2.165851,3.41601 -0.246437,0.47245 -1.158225,1.33114 -1.852766,1.74488 -0.668102,0.39798 -0.884197,0.44587 -0.972587,0.21553 z m 83.276974,-5.50108 c -1.12677,-1.15739 -1.32387,-3.23116 -0.43208,-4.54625 0.66245,-0.9769 1.34599,-1.49916 2.46681,-1.88478 0.87486,-0.30099 1.29227,-0.25243 1.29227,0.15034 0,0.0487 -0.52404,0.23116 -1.0669,0.37143 -1.7223,0.44501 -2.99894,2.30437 -2.67103,3.89024 0.1459,0.70561 0.35129,1.12408 0.7978,1.62539 0.62823,0.70532 0.27071,1.06909 -0.38687,0.39363 z m -89.722566,-6.48752 c -0.150868,-0.18178 -0.175286,-0.15227 0.705962,-0.85336 2.150165,-1.71062 3.592652,-4.48371 2.964332,-5.69874 -0.231151,-0.447 -0.548538,-0.62077 -1.133716,-0.62071 -0.544903,6e-5 -1.289319,0.23853 -1.972195,0.63178 -1.666435,0.95968 -3.54193,3.30461 -3.817379,4.77288 -0.08901,0.47448 -0.309653,0.67774 -0.513232,0.47279 -0.267234,-0.26904 0.122076,-1.44062 0.854945,-2.57287 1.605915,-2.48107 4.528286,-4.32802 6.052257,-3.82507 0.526168,0.17366 1.069473,0.73493 1.155553,1.19378 0.266938,1.4229 -0.51775,3.30409 -2.083741,4.99551 -0.621353,0.67112 -1.814498,1.66329 -2.000202,1.66329 -0.04422,0 -0.139878,-0.0717 -0.212584,-0.15928 z M 157.03754,151.35012 c -1.17301,-0.22482 -2.26485,-0.85588 -2.7505,-1.58976 -0.32505,-0.49117 -0.43587,-1.29069 -0.24334,-1.7555 0.29407,-0.70996 1.66109,-1.5467 2.52691,-1.5467 0.69653,0 0.57456,0.454 -0.16456,0.61252 -0.97963,0.21009 -1.80268,0.79656 -1.869,1.33178 -0.12638,1.01984 0.78402,1.9363 2.27163,2.28675 0.32421,0.0764 0.9948,0.11355 1.65232,0.0916 1.06288,-0.0355 1.10789,-0.0283 1.13793,0.18225 0.0192,0.13478 -0.0404,0.24885 -0.15491,0.29615 -0.22327,0.0923 -2.04108,0.16094 -2.40648,0.0909 z m -83.269737,-6.30331 c -0.03786,-0.0379 -0.06885,-0.37807 -0.06885,-0.75601 0,-1.71914 -1.337382,-2.85807 -2.925593,-2.49147 -0.301422,0.0696 -0.557165,0.0814 -0.610329,0.0283 -0.05316,-0.0532 -0.01915,-0.36789 0.08118,-0.7511 0.224118,-0.85605 0.155599,-2.11342 -0.152414,-2.79687 -0.257122,-0.57054 -0.84122,-1.08845 -1.331223,-1.18037 -1.117395,-0.20962 -2.390962,1.05322 -2.721375,2.69847 -0.104902,0.52235 -0.291177,0.74734 -0.507863,0.61342 -0.157578,-0.0974 -0.105577,-0.6308 0.127759,-1.31052 0.52449,-1.52786 1.654022,-2.55633 2.807521,-2.55633 1.497322,0 2.482891,1.36228 2.463616,3.40529 -0.0047,0.49434 -0.02259,0.96411 -0.03984,1.04392 -0.0237,0.1097 0.145078,0.15941 0.691532,0.20368 0.76628,0.0621 1.015663,0.15877 1.609602,0.6241 0.75286,0.58982 1.322733,2.24989 1.0335,3.01063 -0.102375,0.26927 -0.306789,0.36535 -0.457228,0.21491 z m 53.872267,-8.27462 c -0.50437,-0.48947 -0.75726,-1.01188 -0.75726,-1.56432 0,-0.45713 0.26738,-1.08182 0.58659,-1.37048 0.52327,-0.4732 1.61961,-0.64058 2.20682,-0.33692 0.16758,0.0867 0.30454,0.12151 0.30437,0.0775 -0.004,-1.10704 0.12531,-2.80116 0.24906,-3.2556 0.22771,-0.83623 0.59313,-1.3751 1.03034,-1.51939 0.30752,-0.10149 0.4187,-0.0882 0.77329,0.0927 0.73183,0.37336 1.26409,1.34915 0.7359,1.34915 -0.11359,0 -0.20694,-0.0349 -0.20743,-0.0774 -0.002,-0.19731 -0.75505,-0.85198 -0.97964,-0.85198 -0.63982,0 -1.02123,1.32466 -1.00518,3.49102 0.0125,1.68201 -0.0331,1.77112 -0.70673,1.38341 -0.91801,-0.52834 -1.95135,-0.31336 -2.3093,0.48043 -0.26484,0.58731 -0.13563,1.09508 0.42118,1.65525 0.24738,0.24886 0.44978,0.5111 0.44978,0.58275 0,0.10502 -0.21059,0.25563 -0.35744,0.25563 -0.0169,0 -0.21236,-0.17626 -0.43435,-0.3917 z m 29.66269,-2.03421 c -0.23936,-0.57287 -0.56162,-1.80087 -0.66422,-2.53103 -0.1792,-1.27538 0.17532,-2.46886 0.93807,-3.15796 0.42745,-0.38618 0.60925,-0.43229 0.79968,-0.20283 0.15049,0.18133 0.0631,0.34852 -0.24297,0.46489 -0.38353,0.14582 -0.79083,0.85399 -0.91793,1.596 -0.13775,0.80417 -0.0154,1.70432 0.40981,3.01524 0.14942,0.46065 0.24243,0.91374 0.20669,1.00688 -0.10895,0.28391 -0.37004,0.18958 -0.52913,-0.19119 z M 54.412606,125.36534 c -2.011828,-1.6455 -2.497558,-5.04693 -0.857493,-6.00478 1.340914,-0.78313 3.3775,0.56993 4.124101,2.73996 0.411203,1.19518 0.339833,2.77081 -0.129579,2.8607 -0.258322,0.0495 -0.377719,-0.16598 -0.261454,-0.47178 0.127832,-0.33622 0.117855,-1.32981 -0.01842,-1.83493 -0.303002,-1.12307 -1.184611,-2.34475 -1.987728,-2.75447 -0.567966,-0.28975 -1.255152,-0.27243 -1.594534,0.0402 -0.375976,0.34633 -0.539194,0.81742 -0.539194,1.55626 0,1.28205 0.473539,2.34361 1.471364,3.29844 0.405899,0.38842 0.597272,0.64537 0.557617,0.74871 -0.09263,0.24138 -0.31495,0.18955 -0.764676,-0.17829 z m 30.38642,-1.83533 c -0.03588,-0.0581 0.154106,-0.3485 0.422196,-0.64543 0.919524,-1.01845 1.340255,-2.26927 1.262378,-3.75302 -0.05679,-1.08209 -0.498271,-2.05957 -1.140232,-2.5246 -0.805135,-0.58324 -1.900629,-0.36164 -2.649114,0.53586 -0.278684,0.33417 -0.441431,0.36943 -0.634012,0.13739 -0.205683,-0.24784 0.808834,-1.18273 1.53864,-1.41788 0.730901,-0.23551 0.997039,-0.22437 1.614638,0.0676 0.581788,0.27504 0.93567,0.62425 1.320378,1.30293 0.367654,0.64859 0.480964,1.15495 0.49782,2.22465 0.02306,1.46341 -0.429114,2.718 -1.32467,3.67543 -0.451367,0.48254 -0.769278,0.62157 -0.908022,0.39707 z m -3.883596,-5.54845 c -0.0068,-0.0426 -0.01844,-0.40639 -0.02582,-0.80843 -0.01135,-0.61861 -0.06136,-0.80911 -0.325281,-1.23924 -0.359034,-0.58513 -1.36337,-1.3183 -2.043216,-1.49155 -1.263449,-0.32198 -1.531981,-0.49185 -1.123299,-0.71056 0.26476,-0.1417 1.408246,0.17365 2.208266,0.60899 0.730593,0.39757 1.456783,1.19017 1.673689,1.82675 0.193704,0.56849 0.217122,1.59093 0.04048,1.76757 -0.137934,0.13793 -0.385629,0.16637 -0.404825,0.0465 z m 56.38421,-8.65311 c -1.61971,-0.50693 -2.50951,-2.0334 -2.01393,-3.45494 l 0.1619,-0.4644 -0.29359,-0.25849 c -0.74542,-0.6563 -1.22226,-1.94822 -1.10408,-2.99138 0.0908,-0.80111 0.57585,-1.73564 1.20775,-2.326713 l 0.52819,-0.494058 -0.23576,-0.419476 c -0.49165,-0.874768 -0.37202,-2.410654 0.27476,-3.527663 0.64958,-1.121855 2.20505,-2.220297 3.14409,-2.220297 0.31972,0 0.25929,0.395175 -0.0811,0.530034 -1.00583,0.398544 -1.37275,0.617273 -1.88261,1.12228 -1.26177,1.249743 -1.57111,2.921155 -0.76889,4.154388 0.13776,0.211776 0.25048,0.42923 0.25048,0.48323 0,0.054 -0.26721,0.300587 -0.5938,0.547965 -0.3913,0.2964 -0.69945,0.64226 -0.90361,1.01418 -0.27948,0.50914 -0.30981,0.6554 -0.30981,1.49382 0,0.77866 0.0404,1.00845 0.24895,1.41654 0.13693,0.26791 0.37339,0.60633 0.52548,0.75203 l 0.27652,0.26493 0.44243,-0.40443 c 0.55773,-0.50981 1.17937,-0.8225 1.80589,-0.90838 0.4663,-0.0639 0.48686,-0.0562 0.45344,0.16986 -0.0259,0.175 -0.14283,0.26881 -0.44808,0.35939 -1.60925,0.47751 -2.55636,1.79151 -2.21507,3.07312 0.0794,0.2982 0.27442,0.59267 0.6039,0.91191 0.47807,0.46319 0.65754,0.54062 1.81771,0.78427 0.31531,0.0662 0.41308,0.13563 0.41308,0.29329 0,0.16861 -0.0759,0.2104 -0.41308,0.22758 -0.2272,0.0116 -0.62824,-0.0463 -0.8912,-0.12859 z m -75.220808,-0.75693 c -0.56073,-0.25472 -1.005089,-0.71995 -1.453463,-1.52171 -0.453663,-0.81123 -0.761821,-1.79728 -0.793016,-2.53753 -0.02095,-0.49708 -0.0013,-0.55268 0.205546,-0.58209 0.179791,-0.0256 0.240692,0.0297 0.284744,0.25817 0.281048,1.45792 0.715381,2.63943 1.170777,3.18485 1.114624,1.33496 2.355411,0.93114 3.309044,-1.07694 0.425281,-0.89552 0.441147,-1.17373 0.133083,-2.33356 -0.224391,-0.84482 -0.295722,-2.05869 -0.127097,-2.1629 0.25988,-0.16062 0.382757,0.0893 0.493479,1.00367 0.216116,1.78474 0.831233,3.06972 1.469476,3.06972 0.157457,0 0.365678,-0.0877 0.462713,-0.19495 0.265351,-0.29321 0.555344,-1.13707 0.636124,-1.85107 0.08272,-0.73113 0.269293,-0.97592 0.538585,-0.70663 0.161546,0.16155 0.160706,0.23155 -0.01291,1.07546 -0.217837,1.05884 -0.558557,1.741 -1.031136,2.06445 -0.507747,0.34751 -0.928486,0.29101 -1.449828,-0.19469 -0.285258,-0.26576 -0.324907,-0.2483 -0.460003,0.20262 -0.06512,0.21735 -0.296607,0.67045 -0.514412,1.00687 -0.856799,1.32344 -1.830727,1.7646 -2.861704,1.29626 z m 94.926708,-9.844526 c -0.15448,-1.364354 -0.55696,-1.941524 -1.35389,-1.941524 -0.39306,0 -0.53826,0.05953 -0.8649,0.354628 -0.21589,0.195046 -0.50011,0.60167 -0.6316,0.903609 -0.36464,0.8373 -0.37936,0.85879 -0.58839,0.85879 -0.42058,0 -0.11555,-1.046894 0.54315,-1.864202 0.39028,-0.484258 1.09657,-0.872443 1.58737,-0.872443 0.97242,0 1.78312,1.065308 1.79742,2.361946 0.007,0.620054 -0.0129,0.68743 -0.20981,0.715544 -0.19134,0.02732 -0.22479,-0.03451 -0.27935,-0.516348 z M 47.625935,86.584166 c -0.50007,-0.755656 -0.47121,-1.941147 0.06704,-2.753752 0.357535,-0.539778 0.944696,-0.986344 1.296883,-0.986344 0.313396,0 0.314677,0.364495 0.0018,0.525107 -0.497523,0.255435 -0.912367,0.764102 -1.072556,1.315132 -0.191218,0.657769 -0.129664,1.093353 0.229246,1.622237 0.143757,0.211838 0.23693,0.448869 0.20705,0.526735 -0.104605,0.272595 -0.4659,0.149218 -0.729504,-0.249115 z m 42.731602,-1.94636 c -0.213492,-0.556354 1.146984,-1.793736 1.972175,-1.793736 0.529576,0 0.441991,0.460644 -0.107173,0.563668 -0.390945,0.07334 -1.075055,0.630621 -1.354157,1.103104 -0.194219,0.328787 -0.412573,0.383056 -0.510845,0.126964 z M 45.019954,84.160758 c -0.252408,-0.33043 -0.390626,-0.906804 -0.381038,-1.588946 0.0088,-0.626903 0.06711,-0.853387 0.390349,-1.516433 0.567242,-1.163566 1.683668,-2.093819 1.798327,-1.498442 0.01886,0.09792 -0.181143,0.370094 -0.471579,0.641764 -0.713053,0.666977 -1.074274,1.376539 -1.135355,2.230227 -0.03853,0.538509 -0.0051,0.789857 0.152586,1.146269 0.111066,0.251083 0.182578,0.514594 0.158916,0.585581 -0.05558,0.166753 -0.384822,0.16674 -0.512206,-2e-5 z m 42.413863,-0.107152 c 0,-0.239513 0.741155,-1.024263 1.221303,-1.293141 0.401906,-0.225063 1.190292,-0.276311 1.346945,-0.08756 0.195026,0.234992 0.08032,0.340467 -0.449183,0.413044 -0.547286,0.07501 -0.886815,0.267982 -1.425829,0.810358 -0.446358,0.449141 -0.693236,0.505158 -0.693236,0.157295 z m -35.533252,-4.06762 c -0.395408,-0.919382 -0.533174,-1.669984 -0.489555,-2.667291 0.03469,-0.793076 0.08508,-1.014281 0.323946,-1.421869 0.538956,-0.919659 1.604473,-1.280687 2.834129,-0.960286 1.093289,0.28487 1.877124,0.892227 1.473453,1.141709 -0.05532,0.03419 -0.397514,-0.08104 -0.76043,-0.256075 -1.654698,-0.798046 -2.851854,-0.501169 -3.230434,0.801099 -0.21319,0.733349 -0.148335,1.715177 0.168753,2.554726 0.295654,0.782796 0.321712,1.221114 0.07551,1.270117 -0.132325,0.02634 -0.23883,-0.09815 -0.39537,-0.46213 z M 95.122284,74.85032 c -0.173211,-0.07545 -0.440421,-0.286313 -0.5938,-0.468594 -0.237335,-0.282057 -0.278764,-0.426375 -0.278148,-0.968932 3.98e-4,-0.350632 0.09334,-1.023844 0.206539,-1.496028 0.230745,-0.962503 0.261333,-1.688051 0.09168,-2.174708 -0.130296,-0.373766 -0.362214,-0.529578 -0.788248,-0.529578 -0.439245,0 -0.836421,0.486565 -1.580578,1.936305 -0.357145,0.695779 -0.708042,1.265053 -0.779771,1.265053 -0.172488,0 -0.454978,-0.288194 -0.454978,-0.464166 0,-0.246702 -0.523973,-0.775069 -0.768622,-0.775069 -0.128653,0 -0.358824,0.115762 -0.511491,0.257248 -0.281968,0.26132 -0.781956,1.215837 -0.784846,1.498335 -8.72e-4,0.0852 -0.05077,0.332015 -0.110877,0.548484 -0.08836,0.318203 -0.151796,0.387424 -0.331227,0.361443 -0.158623,-0.02297 -0.242066,-0.131138 -0.292504,-0.379184 -0.115587,-0.568438 -0.310286,-0.693783 -0.836237,-0.538355 -0.430431,0.1272 -0.741979,0.324915 -1.362473,0.864656 -0.16473,0.143292 -0.362233,0.236461 -0.438896,0.207043 -0.682874,-0.262043 1.313066,-1.786418 2.164851,-1.653378 0.181026,0.02827 0.42208,0.08136 0.535677,0.117979 0.17145,0.05526 0.23875,-0.01253 0.396132,-0.399025 0.271156,-0.6659 0.865515,-1.293684 1.320045,-1.394281 0.462831,-0.102435 0.936148,0.0778 1.179455,0.449137 0.09602,0.146541 0.213662,0.266437 0.261434,0.266437 0.04777,0 0.324601,-0.462837 0.615176,-1.028527 0.535894,-1.043276 1.01937,-1.598094 1.497082,-1.717992 0.949037,-0.238193 1.802155,0.678217 1.804069,1.937913 3.17e-4,0.208447 -0.120358,0.880824 -0.268167,1.494171 -0.304844,1.264984 -0.286667,1.840982 0.06714,2.127477 0.123467,0.09998 0.308961,0.181777 0.412208,0.181777 0.293886,0 0.54592,0.299752 0.399934,0.475654 -0.147285,0.177468 -0.360978,0.177109 -0.770562,-0.0013 z m 66.936926,-4.987918 c -0.14513,-0.145132 -0.0492,-0.448794 0.19163,-0.606592 0.63028,-0.412971 0.9153,-1.4125 0.5664,-1.986229 -0.3784,-0.622216 -1.0576,-0.815927 -1.89354,-0.540042 -0.33489,0.110523 -0.41989,0.1071 -0.5491,-0.02211 -0.12381,-0.123809 -0.13172,-0.229093 -0.0416,-0.553678 0.26142,-0.941495 0.0681,-2.053213 -0.43001,-2.472308 -1.01786,-0.85647 -2.8075,0.463063 -3.3144,2.443758 -0.10919,0.426693 -0.1882,0.557178 -0.33735,0.557178 -0.32641,0 -0.24215,-0.894047 0.15918,-1.689082 1.07872,-2.136936 3.15211,-2.842365 4.13887,-1.408166 0.37163,0.540146 0.56192,1.34922 0.47372,2.014121 l -0.065,0.490202 0.45437,-0.05121 c 1.82922,-0.206179 2.7943,1.799327 1.56655,3.255406 -0.30518,0.361926 -0.81267,0.675777 -0.91969,0.568761 z m -13.15386,-1.192088 c -0.39974,-0.503638 -0.43785,-2.023565 -0.0634,-2.528993 0.51412,-0.693987 1.46084,-0.961839 2.10271,-0.594913 0.36024,0.205935 0.41307,0.191971 0.41307,-0.109174 0,-0.505647 0.22678,-1.159192 0.5298,-1.526809 0.54665,-0.663181 1.46814,-0.61651 2.19776,0.111312 0.53103,0.529718 0.60026,0.680855 0.41988,0.916605 -0.14179,0.18531 -0.17107,0.17074 -0.5898,-0.293525 -0.52175,-0.578473 -0.87291,-0.735643 -1.30618,-0.584603 -0.55816,0.194574 -0.81458,1.210158 -0.58992,2.33645 0.12783,0.640875 -0.12265,0.693992 -0.67376,0.142881 -0.55442,-0.554416 -1.04901,-0.70884 -1.57132,-0.490604 -0.64342,0.26884 -0.87119,1.153453 -0.5218,2.026647 0.13339,0.333375 0.14116,0.446966 0.039,0.570073 -0.15567,0.187564 -0.25184,0.193706 -0.38601,0.02465 z"
         id="path1"
         sodipodi:nodetypes="csssssccssscssssssssssscccssssscsssssscssssssccssssssssssssssssscssssssssssssssssssssssssssssssssssssssssscssssssssssssssssssssssssssssssssssscsscsscssssssscssssccsssscsssscscssssssssssssssssssscssssssssssssssssssssssssssssssscscscscssscsssssssscsssssssssccsssccsssssscsssssssssssssssscsscsscsssccssssssssssssssssssssssssssssssssssssssssssssssssssssssssssssssssssssssscssssscssssssssssssssssssss"
         inkscape:label="bush detail" /><g
         style="fill:none;stroke-width:0.22342708;stroke:#000000;stroke-dasharray:none"
         id="g1"
         transform="matrix(3.6477226,0,0,3.6477226,48.924752,79.393969)"
         inkscape:label="python logo"
         clip-path="url(#clipPath8)"><path
           fill-rule="evenodd"
           clip-rule="evenodd"
           d="M 13.0164,2 C 10.8193,2 9.03825,3.72453 9.03825,5.85185 V 8.51852 H 15.9235 V 9.25926 H 5.97814 C 3.78107,9.25926 2,10.9838 2,13.1111 v 5.7778 c 0,2.1273 1.78107,3.8518 3.97814,3.8518 h 2.29508 v -3.2592 c 0,-2.1273 1.78108,-3.8519 3.97818,-3.8519 h 7.3442 c 1.8591,0 3.3661,-1.4592 3.3661,-3.2592 V 5.85185 C 22.9617,3.72453 21.1807,2 18.9836,2 Z m -0.918,4.74074 c 0.7605,0 1.377,-0.59696 1.377,-1.33333 0,-0.73638 -0.6165,-1.33334 -1.377,-1.33334 -0.7606,0 -1.3771,0.59696 -1.3771,1.33334 0,0.73637 0.6165,1.33333 1.3771,1.33333 z"
           fill="url(#paint0_linear_87_8204)"
           id="path1-1"
           style="fill:url(#paint0_linear_87_8204);stroke-width:0.22342708;stroke:#000000;stroke-dasharray:none" /><path
           fill-rule="evenodd"
           clip-rule="evenodd"
           d="m 18.9834,30 c 2.1971,0 3.9782,-1.7245 3.9782,-3.8518 v -2.6667 h -6.8853 v -0.7407 h 9.9454 c 2.1971,0 3.9781,-1.7246 3.9781,-3.8519 v -5.7778 c 0,-2.1273 -1.781,-3.85182 -3.9781,-3.85182 h -2.2951 v 3.25922 c 0,2.1274 -1.7811,3.8519 -3.9781,3.8519 h -7.3443 c -1.8591,0 -3.36611,1.4592 -3.36611,3.2592 v 6.5186 C 9.03809,28.2755 10.8192,30 13.0162,30 Z m 0.9181,-4.7407 c -0.7606,0 -1.3771,0.5969 -1.3771,1.3333 0,0.7364 0.6165,1.3333 1.3771,1.3333 0.7605,0 1.377,-0.5969 1.377,-1.3333 0,-0.7364 -0.6165,-1.3333 -1.377,-1.3333 z"
           fill="url(#paint1_linear_87_8204)"
           id="path2"
           style="fill:url(#paint1_linear_87_8204);stroke-width:0.22342708;stroke:#000000;stroke-dasharray:none" /></g><path
         style="fill:none;stroke:#000000;stroke-width:0.6;stroke-linecap:butt;stroke-linejoin:miter;stroke-dasharray:none;stroke-opacity:1"
         d="m 137.70753,162.02324 c 0,0 -3.95411,-1.87908 -4.90648,-3.10086 -0.75085,-0.96323 -0.79952,-2.71606 -0.0292,-3.66378 0.48744,-0.5997 2.27321,-0.45565 2.27321,-0.45565 0,0 -3.42057,-1.54157 -3.62109,-3.12279 -0.007,-2.16147 2.18547,-2.2696 3.73091,-1.79487 0,0 -2.59826,-1.98295 -2.75949,-3.44554 -0.13358,-2.62472 1.98393,-3.90645 4.30135,-3.98624 0,0 -13.50336,0.45285 -15.75593,-4.52559 -0.39506,-0.87313 5.01915,-5.12945 5.01915,-5.12945 0,0 -6.9531,-1.76982 -6.53107,-2.81346 1.14805,-2.83903 5.19526,-3.55635 7.20214,-4.10352 -1.7171,0.46389 -4.82996,-1.60433 -4.49117,-3.46444 0.39289,-2.15714 6.29041,-1.92332 6.29041,-1.92332 0,0 -4.9007,-2.63806 -4.12196,-3.48612 2.84859,-3.10221 7.37637,-2.92689 7.37637,-2.92689 0,0 -7.19108,-1.85401 -6.46856,-4.3499 0.62874,-2.17194 6.7806,-0.19292 6.7806,-0.19292 0,0 -4.02073,-2.23333 -3.86299,-4.10584 0.17889,-2.1236 5.09823,-3.85787 5.09823,-3.85787 -6.01134,-3.766825 -5.97697,-6.086167 -5.43008,-12.268487 l -3.16399,1.070498 c -1.5596,0.50315 -2.27645,0.39993 -2.67424,-0.0376 v 0 c -0.79856,-0.87827 -0.71666,-0.39907 -1.00328,-4.31447 -0.55217,1.36639 -0.87098,3.89682 -3.08619,3.35651 -0.91404,-0.22294 -0.48233,-2.50605 -0.16986,-3.75698 0,0 -0.41477,1.36082 -0.97416,1.3666 -0.48694,0.005 -0.66421,-0.16521 -0.87236,-1.17181 -0.062,0.59199 0.56206,3.33893 -0.58314,3.3891 -1.21552,0.0532 -0.85432,-1.57238 -0.93112,-3.5293 -0.7379,1.88853 -1.14466,3.72302 -2.54235,3.66535 -2.46972,-0.1019 -1.20543,-1.76887 -1.36186,-4.25859 -0.26427,0.53857 -1.16515,3.04587 -2.52308,3.26571 -1.17221,0.18978 -2.31042,-0.21412 -2.95624,-1.98787 -0.17815,-0.5533 -0.0878,-1.74162 -0.0878,-1.74162 0,0 -0.10668,3.95666 -1.60338,4.39874 -2.49362,0.73654 -6.936293,0.33425 -6.224583,-4.70108 0.1351,3.14075 -3.22091,5.47366 -6.00492,6.12536 -2.49978,0.58517 -4.65129,-2.15245 -7.27281,-2.53534 0,0 2.94943,1.18743 3.95789,2.34198 3.80239,5.95437 -8.98605,4.62545 -12.41274,4.21409 0,0 2.62438,1.20588 3.72423,2.11644 6.36282,4.570359 -2.20536,3.0015 -5.93709,3.796399 0,0 4.94872,-0.22061 6.28643,1.46458 1.46265,3.68517 -3.51609,4.16782 -6.58771,4.80909 2.51803,0.3355 9.24646,-1.63766 12.6163,0.89592 1.33016,1.00007 1.72286,4.68584 1.72286,4.68584 0,0 9.49302,-2.79571 11.04163,0.54818 0.66635,1.43885 -2.89315,3.77603 -2.89315,3.77603 0,0 6.907463,-1.9507 8.144073,-1.30492 2.74998,2.77482 -2.681,3.21148 -4.809993,3.92884 3.381813,-0.0185 7.408733,0.52014 6.818343,3.27351 -0.38483,2.35512 -2.0129,2.74486 -6.554293,0.71062 6.373073,3.46024 8.557693,4.81624 7.199643,4.96409 -2.02619,0.22059 -7.436323,-1.91649 -7.436323,-1.91649 0,0 6.971143,3.99693 5.478203,6.36482 -1.30956,2.07704 -7.109193,-1.92899 -7.109193,-1.92899 0,0 4.168103,4.16073 3.070713,6.18359 -1.524623,2.81041 -9.527773,1.10789 -9.527773,1.10789 3.34332,1.77347 0.97168,6.59796 -0.87319,8.96807 -1.99968,2.56901 -3.56049,3.54093 -9.19108,3.30314 0,0 6.59763,1.10492 6.29849,3.48578 -0.27449,2.18468 -3.90843,0.64022 -6.39114,1.6694 0,0 5.22473,-0.33892 6.43498,1.5014 0.72574,1.10357 -0.10426,2.722 -0.70213,3.89976 -0.73571,1.44932 -3.3639,3.52992 -3.3639,3.52992 0,0 5.31317,0.72167 5.32533,2.71398 0.0184,3.01716 -8.01392,4.20826 -8.01392,4.20826"
         id="path6-1-9-0"
         sodipodi:nodetypes="csscscscscscacscacacccsscscacacscascacacscscscacacscscscacacacacsscac"
         inkscape:label="python bush outline" /><g
         id="g116033"
         transform="matrix(0.22422873,0,0,0.22422873,124.03925,157.03924)"><g
           id="g113801"
           transform="matrix(0.24240695,0,0,0.24240695,110.096,157.81834)"
           style="stroke:#000000;stroke-width:8.25059;stroke-dasharray:none;stroke-opacity:1"><path
             style="fill:none;stroke:#000000;stroke-width:8.25059;stroke-linecap:round;stroke-linejoin:miter;stroke-dasharray:none;stroke-opacity:1"
             d="m 205.99462,114.53841 c 0,0 32.94525,-17.790393 50.16146,-25.071988 19.29588,-8.161191 59.32205,-20.768228 59.32205,-20.768228"
             id="path113726"
             sodipodi:nodetypes="cac" /><path
             style="fill:none;stroke:#000000;stroke-width:8.25059;stroke-linecap:round;stroke-linejoin:miter;stroke-dasharray:none;stroke-opacity:1"
             d="m 259.33323,89.237972 c 0,0 1.74506,25.481788 2.77085,38.210948 1.20961,15.01032 2.98561,29.97494 3.99005,45.00038 0.75143,11.24075 3.33542,22.64418 1.52253,33.76319 -1.08994,6.68495 -2.44426,14.25122 -7.31583,18.957 -4.44041,4.28927 -11.32653,6.15628 -17.49961,6.06623 -5.87815,-0.0857 -12.01558,-2.44453 -16.48795,-6.26001 -7.48528,-6.38585 -13.09787,-15.89146 -14.69349,-25.60035 -0.76604,-4.66112 -0.0857,-10.12358 2.7496,-13.90163 6.78066,-9.03513 16.80883,-11.41784 25.65074,-16.39838 19.52843,-11.00013 60.3353,-29.68015 60.3353,-29.68015"
             id="path113728"
             sodipodi:nodetypes="caaaaaaasac" /></g><circle
           style="font-variation-settings:normal;opacity:1;fill:#000000;fill-opacity:1;stroke:none;stroke-width:0;stroke-linecap:butt;stroke-linejoin:miter;stroke-miterlimit:4;stroke-dasharray:none;stroke-dashoffset:0;stroke-opacity:1;stop-color:#000000;stop-opacity:1"
           id="path113855"
           cx="163.87396"
           cy="195.53197"
           r="1.2973486" /><circle
           style="font-variation-settings:normal;fill:#000000;fill-opacity:1;stroke:none;stroke-width:0;stroke-linecap:butt;stroke-linejoin:miter;stroke-miterlimit:4;stroke-dasharray:none;stroke-dashoffset:0;stroke-opacity:1;stop-color:#000000"
           id="path113855-4"
           cx="159.18706"
           cy="197.21654"
           r="1.4208925" /></g></g></g></svg>
